<?xml version="1.0" encoding="utf-8"?>
<!-- Uploaded to: SVG Repo, www.svgrepo.com, Generator: SVG Repo Mixer Tools -->
<!DOCTYPE svg PUBLIC "-//W3C//DTD SVG 1.1//EN" "http://www.w3.org/Graphics/SVG/1.1/DTD/svg11.dtd">
<svg version="1.1" id="Capa_1" xmlns="http://www.w3.org/2000/svg" xmlns:xlink="http://www.w3.org/1999/xlink" 
	 width="800px" height="800px" viewBox="0 0 600 600" enable-background="new 0 0 600 600" xml:space="preserve">
<g>
	<path fill="#DC7D49" d="M500,423.139C500,465.587,465.587,500,423.139,500H176.862C134.412,500,100,465.587,100,423.139V176.862
		C100,134.413,134.412,100,176.862,100h246.276C465.587,100,500,134.413,500,176.862V423.139z"/>
	<path fill="#D3733E" d="M500,423.139V261.756l-74.607-63.55l-17.253,31.521l6.098,164.479L285.892,243.301L184.893,406.66L300,500
		h123.139C465.587,500,500,465.587,500,423.139z"/>
	<rect x="185.763" y="205.795" fill="#E7BD79" width="228.475" height="188.41"/>
	<g>
		<path fill="#223E52" d="M231.033,193.341h-46.14c-6.435,0-11.804,4.563-13.046,10.63c-0.176,0.867-0.27,1.766-0.27,2.685v46.14
			c0,7.354,5.961,13.316,13.316,13.316c7.354,0,13.316-5.961,13.316-13.316v-32.824h32.824c7.354,0,13.316-5.961,13.316-13.316
			C244.349,199.302,238.386,193.341,231.033,193.341z"/>
		<path fill="#223E52" d="M417.788,193.611c-0.865-0.176-1.762-0.27-2.682-0.27h-46.14c-7.354,0-13.316,5.961-13.316,13.315
			c0,7.355,5.962,13.316,13.316,13.316h32.824v32.824c0,7.354,5.961,13.316,13.315,13.316s13.316-5.961,13.316-13.316v-46.14
			C428.423,200.222,423.858,194.855,417.788,193.611z"/>
		<path fill="#223E52" d="M231.033,380.028h-32.824v-32.824c0-7.354-5.961-13.315-13.316-13.315
			c-7.355,0-13.316,5.961-13.316,13.315v46.14c0,0.92,0.094,1.82,0.27,2.686c1.242,6.066,6.611,10.631,13.046,10.631h46.14
			c7.354,0,13.316-5.962,13.316-13.316S238.386,380.028,231.033,380.028z"/>
		<path fill="#223E52" d="M415.106,333.889c-7.354,0-13.315,5.961-13.315,13.315v32.824h-32.824
			c-7.354,0-13.316,5.961-13.316,13.315s5.962,13.316,13.316,13.316h46.14c0.92,0,1.816-0.094,2.682-0.271
			c6.07-1.244,10.635-6.61,10.635-13.046v-46.14C428.423,339.85,422.461,333.889,415.106,333.889z"/>
	</g>
	<path fill="#9F4456" d="M324.248,286.004h-10.251v-10.251c0-7.73-6.263-13.997-13.995-13.997c-7.729,0-13.996,6.267-13.996,13.997
		v10.249h-10.254c-7.731,0-13.997,6.267-13.997,13.997c0,7.731,6.266,13.998,13.997,13.998h10.254v10.251
		c0,7.73,6.267,13.997,13.996,13.997c7.732,0,13.995-6.267,13.995-13.997v-10.251h10.251c7.73,0,13.997-6.267,13.997-13.996
		C338.245,292.271,331.979,286.004,324.248,286.004z"/>
</g>
</svg>